<svg xmlns="http://www.w3.org/2000/svg" viewBox="0 0 100 115">
  <rect width="100" height="115" fill="#0A0A0A"/>
  <polygon points="18,38 26,4 34,38" fill="#C9A84C"/>
  <polygon points="66,38 74,4 82,38" fill="#C9A84C"/>
  <rect x="14" y="36" width="72" height="30" fill="#C9A84C"/>
  <rect x="20" y="64" width="60" height="22" fill="#C9A84C"/>
  <rect x="26" y="64" width="6" height="22" fill="#0A0A0A"/>
  <rect x="39" y="64" width="6" height="22" fill="#0A0A0A"/>
  <rect x="52" y="64" width="6" height="22" fill="#0A0A0A"/>
  <rect x="65" y="64" width="6" height="22" fill="#0A0A0A"/>
  <circle cx="34" cy="50" r="12" fill="#0A0A0A"/>
  <circle cx="34" cy="50" r="7" fill="#C9A84C" opacity="0.4"/>
  <circle cx="34" cy="50" r="4" fill="#0A0A0A"/>
  <circle cx="34" cy="50" r="2" fill="#C9A84C"/>
  <circle cx="66" cy="50" r="12" fill="#0A0A0A"/>
  <circle cx="66" cy="50" r="7" fill="#C9A84C" opacity="0.4"/>
  <circle cx="66" cy="50" r="4" fill="#0A0A0A"/>
  <circle cx="66" cy="50" r="2" fill="#C9A84C"/>
  <rect x="30" y="84" width="40" height="14" fill="#C9A84C" opacity="0.5"/>
</svg>